<svg xmlns="http://www.w3.org/2000/svg" width="142" height="60" viewBox="0 0 142 60"><defs><clipPath id="u2oya"><path d="M0 0h141.705v60H0z"/></clipPath></defs><g><g><g/><g clip-path="url(#u2oya)"><path fill="#0e1d4a" d="M51.941 12.307c-.024.024-.047.024-.118-.023a2.913 2.913 0 0 1-.402-.355c-.421-.354-2.15-2.008-4.913-3.661-2.788-1.678-8.835-4.654-17.22-4.654-9.827 0-16.583 3.803-20.623 7.134-4.039 3.307-5.905 7.394-5.976 7.512-.07.141-.094.213-.142.189-.047-.024-.023-.048.024-.165.047-.118 1.842-4.513 5.429-8.505C11.642 5.716 18.728 0 29.193 0c10.04 0 16.37 5.362 18.449 7.252 2.079 1.89 3.685 4.11 3.945 4.488.212.26.307.426.354.496.059.024.059.048 0 .071zM.232 28c.024.086 0 .181 0 .417 0 .166-.232 5.056 2.292 10.205 2.55 5.292 7.086 10.842 14.338 14.48C23.76 56.553 30.47 57 35.5 56.505c4.843-.504 8.575-2.362 9-2.504.165-.095.189-.142.213-.095v.024c-.024.071-.071.071-.166.166-.141.117-.354.306-.661.52-.567.385-1.7 1.464-5.504 3.07-5.457 2.315-14.599 3.78-23.717-1.181C5.902 51.756 2 43.559.658 37.299c-.993-4.724-.567-8.693-.567-9 0-.118 0-.189.023-.213C.138 28 .161 28 .185 28h.047zm96.709 9c-.354.3-.543.677-.567 1.103 0 .779.449 1.298 2.575 1.298 1.512 0 2.504-.472 2.504-1.204 0-.567-.095-.898-2.453-1.063L97.177 37zm1.913-10.33c-1.275 0-1.464 1.275-1.488 2.03 0 .757.213 2.056 1.488 2.056.945 0 1.489-.756 1.489-2.055 0-.922-.26-2.032-1.489-2.032zm-5.787 12c0-1.017.543-1.843 1.7-2.504-.519-.402-.767-.945-.767-1.583 0-.827.532-1.725 1.406-2.362-1.063-.85-1.654-2.126-1.654-3.615 0-2.835 2.008-4.677 5.102-4.677 1.465 0 2.693.402 3.544 1.157.708-.613 1.795-1.086 2.693-1.18l.212-.024v3.236h-.189c-.283 0-.827 0-1.464.118.141.472.212.922.212 1.37 0 2.858-1.913 4.654-5.008 4.654a6.4 6.4 0 0 1-1.535-.165c-.189.165-.213.306-.213.378 0 .212.048.424.969.527l1.606.063c3.78.236 5.244 1.181 5.244 3.567 0 2.37-2.527 3.85-6.449 3.85-3.755 0-5.409-.78-5.409-2.81zM57.492 42.4h3.921v17.315h-3.92V52.3H52v7.417h-4V42.401h4V49h5.492zM88 44.173l3.791-.52v16.063H88zm-6.106 9.378c-2.622.615-2.953 1.512-2.953 2.244 0 .662.354 1.04.968 1.04.686 0 1.347-.308 1.985-.835zm3.708 2.953c0 1.559.071 2.386.284 3l.114.26h-3.823l-.047-.142c-.07-.307-.13-.685-.213-1.228-.917.992-2.078 1.488-3.472 1.488-2.032 0-3.213-1.252-3.213-3.425 0-2.575 2.174-4.228 6.662-5.08V51c0-.85-.307-1.205-1.063-1.205-1.323 0-2.646.804-3.307 1.3l-.142.117-1.772-2.338.142-.118c1.535-1.346 3.52-2.055 5.74-2.055 2.811 0 4.11 1.37 4.11 4.299zM75 30.827c-2.555.614-2.91 1.511-2.91 2.244 0 .661.355 1.04.97 1.04.684 0 1.37-.308 1.94-.875zm.327 6.047c-.071-.307-.166-.685-.213-1.229-.945.993-2.114 1.489-3.472 1.489-2.032 0-3.213-1.252-3.213-3.426 0-2.574 2.173-4.228 6.662-5.078v-.355C75.09 27.401 74.783 27 74 27c-1.295 0-2.618.85-3.28 1.347l-.165.117-1.772-2.338.142-.126c1.536-1.338 3.52-2 5.74-2 2.811 0 4.11 1.323 4.11 4.252v5.504c0 1.559.071 2.386.284 2.953l.07.291h-3.802zm13.275-12.945c2.08 0 3.19 1.205 3.19 3.425v9.59H88v-8.48c0-1.11-.46-1.252-.933-1.252-.567 0-1.228.355-1.96 1.017V37H81.28V24.189h3.826v1.37c.756-.827 1.985-1.63 3.496-1.63zm10.229 18.78v4.18h2.645v2.93h-2.645v5.717c0 1.157.236 1.464 1.275 1.464.331 0 .827-.118.945-.166l.26-.118v2.906l-.142.047c-.283.071-1.417.165-2.169.165-3 0-4-.897-4-3.424v-6.568h-1.768v-2.928H95v-3.71l3.807-.495zm27.33-18.78c2.08 0 3.19 1.205 3.19 3.425v9.59h-3.804v-8.48c0-1.11-.449-1.252-.921-1.252-.567 0-1.228.355-1.96 1.017V37h-3.827V24.189h3.826v1.37c.756-.827 1.985-1.63 3.496-1.63zM136.555 27c-.945 0-1.555.78-1.748 2.292h3.402C138 27 136.909 27 136.555 27zm5.15 7.464l-.095.142c-1.204 1.772-2.834 2.646-4.984 2.646-3.52 0-5.626-2.48-5.626-6.638 0-4.913 3-6.614 5.532-6.614 3.283 0 5.173 2.433 5.173 6.803v.803h-6.945c.142 1.795.803 2.67 2.031 2.67 1.134 0 2.055-.78 2.504-1.512l.118-.19zm-31.229 12.213c2.103 0 3.19 1.205 3.19 3.449v9.59h-3.804v-8.48c0-1.11-.449-1.236-.921-1.236-.567 0-1.228.338-1.941 1v8.716h-3.846V42.142l3.846-.52v6.685c.736-.827 2-1.63 3.476-1.63zm.898-12.472c1.276 0 1.819-1.11 1.819-3.615 0-3.165-1.04-3.59-1.819-3.59-1.252 0-1.819 1.134-1.819 3.59 0 3.237 1.04 3.615 1.819 3.615zm0-10.276c1.626 0 2.93.544 3.921 1.535 1.134 1.158 1.705 2.883 1.705 5.103 0 4.89-2.886 6.638-5.626 6.638-2.717 0-5.646-1.748-5.646-6.638 0-2.22.59-3.921 1.725-5.103.968-.991 2.338-1.535 3.921-1.535zm-42.59 25.772c-.945 0-1.56.826-1.725 2.299h3.378c-.213-2.3-1.3-2.3-1.654-2.3zm2.858 5.67L74 57.211l-.138.142C72.658 59.127 71 60 68.878 60c-3.52 0-5.622-2.48-5.622-6.638 0-4.913 2.976-6.661 5.527-6.661 3.284 0 5.217 2.48 5.217 6.85v.827h-7c.154 1.771.815 2.622 2 2.622 1.177 0 2.098-.756 2.547-1.488zM52 30.802c0 4.323-2 6.449-6.083 6.449-4.063 0-6.118-2.173-6.118-6.425V19.394h3.921v11.22c0 2.386.638 3.26 2.28 3.26 1.547 0 2.209-.874 2.209-3.236V19.394H52zM20.122 29.48V19.394h3.59V37h-3.59l-.047-.126c-.213-.354-4.441-7.874-5.717-10.275V37h-3.59V19.394h3.945l.047.094c.189.33 4.086 7.512 5.338 9.992zM66.776 37h-9.213V19.394h3.921v14.291h5.292zm-36.922 0v-6.93l-4.937-10.7H29l2.91 6.992 2.952-6.992h3.874L33.776 30v7z"/></g></g></g></svg>