<svg xmlns="http://www.w3.org/2000/svg" width="65" height="71" viewBox="0 0 65 71"><g><g><g><path fill="#0e1d4a" d="M55.148 34.527v10.829a13.31 13.31 0 0 1-9.619 13.514 17.096 17.096 0 0 1-1.801-.797 15.818 15.818 0 0 1-11.27 12.747 15.85 15.85 0 0 1-11.213-12.658c-.632.319-1.245.606-1.947.838-5.964-1.708-9.945-7.328-9.588-13.527V34.645h19.206v5.9h-2.36V36.74H11.806v9.944a11.123 11.123 0 0 0 7.493 11.538 11.126 11.126 0 0 0 7.407-11.42v-2.95h-3.542v10.298c-.658.68-1.39 1.282-2.163 1.799v-14.34h13.817v2.243h-5.9v1.505a12.834 12.834 0 0 1-5.754 11.537 13.865 13.865 0 0 0 9.295 13.158C38.396 68 42.235 62.247 41.84 56V43.616H38.18v2.95a11.584 11.584 0 0 0 2.538 7.996v1.503A12.894 12.894 0 0 1 36 45.356V34.527zm-2.273 2.212H38.122v4.869H44V54.62c.071.865.071 1.732 0 2.596.564.33 1.127.628 1.705.887a11.156 11.156 0 0 0 7.407-11.42zm-38.8-8.084v-.443c.24-.102.468-.212.679-.382a.285.285 0 0 0 0-.207c.039-.343.039-.69 0-1.034v-8.202c.043-.324.043-.65 0-.973a.615.615 0 0 0-.324-.207 5.203 5.203 0 0 0-1.269 0v-.738h5.251V17h-1.297c-.115 0-.236.123-.295.238a1.762 1.762 0 0 0 0 .825v9.795h1.417a14.742 14.742 0 0 0 3.628-.293c0-.179 0-.385.206-.565l.355-1.443H23c0 .856-.249 1.83-.368 2.95h-8.498zm15.432-.559v.56h-5.252v-.56a4.97 4.97 0 0 0 1.27 0 .594.594 0 0 0 .323-.208 2.516 2.516 0 0 0 0-.826v-8.674a2.954 2.954 0 0 0 0-.975.712.712 0 0 0-.324-.235 8.733 8.733 0 0 0-1.269 0v-.708h5.252V17H28.21a.798.798 0 0 0-.296.267 2.373 2.373 0 0 0-.148.826v8.734c-.063.31-.063.632 0 .943.077.118.234.23.324.23.432.06.91.06 1.3 0zm1.653.442h.177v.117zm.177-.443c.4.075.81.075 1.21 0a.47.47 0 0 0 .206-.148c.042-.304.042-.61 0-.947v-9a.863.863 0 0 0 0-.38.882.882 0 0 0-.295-.382.673.673 0 0 0-.355-.178h-.943v-.591h3.275l1.121 1.416L37.386 20 40 23.167l2.076 2.332c.326.381.62.677.826.883v-8.201c.026-.296.026-.591 0-.885a.503.503 0 0 0-.207-.148 3.712 3.712 0 0 0-1.238 0v-.68h4.013V17h-1.238a.395.395 0 0 0-.179.207 2.463 2.463 0 0 0 0 .884v10.74h-.884l-.237-.234-.354-.354A19.476 19.476 0 0 1 41.488 27l-1.152-1.413-6.64-7.317v8.645c-.039.294-.039.59 0 .884.046.083.12.146.207.201h1.24v.538a15.68 15.68 0 0 0-1.74 0h-2.066zm20.86 0v.56h-5.251v-.56c.43.052.867.052 1.297 0a.516.516 0 0 0 .295-.207c.11-.26.161-.543.148-.825v-8.676a2.36 2.36 0 0 0-.148-.973.7.7 0 0 0-.323-.237 8.733 8.733 0 0 0-1.27 0v-.708h5.252V17h-1.269a.79.79 0 0 0-.323.266 1.883 1.883 0 0 0 0 .826v8.734a2.372 2.372 0 0 0 0 .945c.073.115.19.229.323.229.43.06.867.06 1.3 0zm12.717-.974l-.354.797c-.65.317-1.332.565-2.036.737-.719.145-1.451.215-2.183.206a9.107 9.107 0 0 1-2.597-.323c-.744-.194-1.436-.538-2.066-.945a5.939 5.939 0 0 1-1.445-1.386 5.679 5.679 0 0 1-.884-1.682 6.79 6.79 0 0 1-.295-1.978c-.054-1.716.717-3.352 2.005-4.484a7.725 7.725 0 0 1 5.43-1.8 10.994 10.994 0 0 1 1.511 0c.57.082 1.141.199 1.704.353l1.21.295a5.572 5.572 0 0 0-.295.915 12.122 12.122 0 0 0-.176 1.682h-.56v-.915a1.465 1.465 0 0 0-.974-1.239c-.823-.354-1.712-.47-2.599-.412-.728-.008-1.453.058-2.153.295-.586.191-1.157.513-1.564.943a5.01 5.01 0 0 0-1.121 1.595c-.29.782-.472 1.612-.472 2.449 0 1.555.572 3.066 1.682 4.16 1.206 1.074 2.783 1.616 4.397 1.563.768 0 1.532-.109 2.27-.324a6.303 6.303 0 0 0 1.565-.678zm-53.11 0l-.355.797c-.66.32-1.35.565-2.066.737-.717.15-1.449.22-2.181.206a8.983 8.983 0 0 1-2.568-.323c-.741-.187-1.44-.538-2.066-.945a6.045 6.045 0 0 1-1.476-1.386 5.635 5.635 0 0 1-.795-1.682A6.291 6.291 0 0 1 0 22.547a5.97 5.97 0 0 1 2-4.484 7.753 7.753 0 0 1 5.437-1.8 11.74 11.74 0 0 1 1.506 0c.566.08 1.13.196 1.681.353l1.238.295c-.136.292-.236.6-.295.915a11.927 11.927 0 0 0-.207 1.682h-.53v-.915a1.464 1.464 0 0 0-.973-1.239 5.664 5.664 0 0 0-2.596-.412c-.73-.008-1.456.058-2.156.295-.59.198-1.105.52-1.593.943-.512.455-.836.996-1.09 1.595C2.1 20.55 2 21.385 2 22.224a5.455 5.455 0 0 0 1.63 4.16C4.825 27.456 6.394 28 8 27.947a8.157 8.157 0 0 0 2.298-.324 6.244 6.244 0 0 0 1.506-.678zM5.135.27h1.8C7.486.3 8 .3 8.588.27A80.922 80.922 0 0 0 10 3.22l3.426 6.699 2.951-6.077C17.203 2.188 17.763.892 18.06.27h3.51v.591a4.927 4.927 0 0 0-1.268 0C20.168.876 20 1 20 1.067a1.388 1.388 0 0 0 0 .826v8.675a1.643 1.643 0 0 0 0 .944.49.49 0 0 0 .42.295c.42.055.848.055 1.267 0v.591h-5.192v-.59c.401.047.808.047 1.21 0 .13-.03.295-.101.295-.207.139-.261.19-.543.176-.826V2.07l-2.95 6.136c-.472.975-.854 1.743-1.122 2.332-.265.59-.5 1.092-.914 2.035h-.354A3.896 3.896 0 0 0 12.6 12L12 10.806l-4.268-8.47v8.174c-.063.31-.063.632 0 .943.102.191.268.324.502.354.43.052.867.052 1.297 0v.591H5.135v-.59a4.93 4.93 0 0 0 1.27 0 .553.553 0 0 0 .323-.207c.11-.261.16-.543.148-.826V2.13a2.441 2.441 0 0 0-.148-.974C6.65 1 6.535 1 6.405.95a5.019 5.019 0 0 0-1.27 0zm19.033 12.126H22.28v-.588h.884l.443-.206c.141-.205.243-.435.293-.68.1-.215.502-1.013 1.152-2.39l2.273-4.809L28.887.182h.621l3.835 8.617c.657 1.386 1.032 2.27 1.238 2.624a.87.87 0 0 0 .419.385c.268.047.579.047.88 0v.588H31v-.588c.355.028.761.028 1.163 0a.571.571 0 0 0 .295 0 .425.425 0 0 0 .029-.326 1.209 1.209 0 0 0 0-.482l-1.121-2.616h-5.163l-.973 2.214c-.143.265-.23.556-.23.856-.052.056-.052.12 0 .176 0 .093.163.154.289.178h1.15v.53h-2.271zm2.39-4.749H31l-2.29-5.134zM43.256 2.1c.224-.287.402-.604.53-.945 0 0 0-.155-.176-.235a5.165 5.165 0 0 0-1.3 0V.271h4.457v.56a3.956 3.956 0 0 0-1.151 0l-.472.296c-.254.25-.482.528-.678.873L41.84 5.7A8.78 8.78 0 0 0 41 7.177v3.393c0 .33 0 .66.132.974.03.104.094.195.178.265.422.054.848.054 1.269 0v.59h-5.223v-.59c.422.054.847.054 1.269 0a.387.387 0 0 0 .295-.206c.08-.261.08-.537 0-.798v-3.48l-.354-.68-.915-1.476L35.674 2A2.934 2.934 0 0 0 35 1.127C34.9 1 34.76 1 34.612.92a4.06 4.06 0 0 0-1.152 0V.271h5.43v.56a6.736 6.736 0 0 0-1.417 0s-.176 0-.176.237c0 .235 0 .413.443.932l2.655 4.32zm5.37.9a5.89 5.89 0 0 0-.532 2.759c.006.554.056 1.106.148 1.653.1.495.247.978.443 1.445a4.898 4.898 0 0 0 1.004 1.593c.423.458.949.812 1.534 1.034a5.544 5.544 0 0 0 1.888.324 4.678 4.678 0 0 0 2.744-.502 4.269 4.269 0 0 0 1.564-1.889c.383-.934.58-1.94.58-2.95 0-.84-.167-1.68-.432-2.467a4.53 4.53 0 0 0-.621-1.28 4.513 4.513 0 0 0-.885-1.002A5.715 5.715 0 0 0 54.498 1a6.348 6.348 0 0 0-1.83-.258 5.04 5.04 0 0 0-2.507.591C49.505 1.715 49 2.278 48.627 3zm-2.094 5.798a7.128 7.128 0 0 1-.444-2.42 6.847 6.847 0 0 1 .444-2.477c.289-.79.765-1.5 1.386-2.067A6.754 6.754 0 0 1 50.16.477C51.104.129 52.108 0 53.111 0 54 0 55 .177 55.826.477a5.913 5.913 0 0 1 1.978 1.062A5.13 5.13 0 0 1 59 3c.243.351.412.78.515 1.225.15.547.219 1.114.206 1.682.057 1.833-.721 3.606-2.005 4.868-1.391 1.225-3.222 1.952-5.106 1.889A8.138 8.138 0 0 1 50 12.25c-.793-.251-1.499-.717-2.081-1.251-.574-.644-1.008-1.359-1.269-2.143z"/></g></g></g></svg>