<svg xmlns="http://www.w3.org/2000/svg" width="195" height="30" viewBox="0 0 195 30"><g><g><g><path fill="#0e1d4a" d="M0 0h63.604c.021.12.066.25.066.381-.005 6.979-.014 13.958-.021 20.936-.002 2.29 0 4.581 0 6.871v1.706H0zm20.845 8.151c-.54-.019-1.08.005-1.62-.009-.285-.007-.419.113-.442.388-.037.47-.078.9-.122 1.349-.104 1.121-.218 2.121-.315 3.232a50.047 50.047 0 0 0-.157 2.159c-.035.73-.073 1.53-.332 2.271-.185.53-.478.98-.857 1.324-.671.52-1.428.656-2.237.604-1.001-.064-1.948-.915-1.95-1.934-.001-1.022.06-2.045.122-3.066.065-.846.144-1.69.219-2.535.002-.022.007-.043.009-.064.08-1.138.167-2.275.229-3.413.005-.098-.154-.29-.242-.294a28.376 28.376 0 0 0-2.008-.002c-.142.003-.235.151-.263.257-.068.258-.093.528-.118.795-.112 1.195-.228 2.39-.322 3.586-.072.902-.113 1.806-.169 2.71-.006.096-.01.194-.022.29-.173 1.507-.098 2.937.752 4.29.72 1.08 1.694 1.686 2.866 1.911 1.134.123 2.334.088 3.467-.432a5.714 5.714 0 0 0 2.178-1.735c.687-.894 1.023-1.968 1.178-3.075A43.56 43.56 0 0 0 21 13.429c.095-.913.13-1.829.183-2.743.006-.108.014-.216.027-.323.076-.66.154-1.363.242-2.072-.21-.051-.452-.133-.607-.14zm28.906-.63c-.114.124-.191.181-.231.258-.192.366-.368.74-.52 1.106-.483.853-.943 1.699-1.377 2.558-.293.557-.536 1.185-.832 1.764-.371.726-.791 1.43-1.158 2.156-.273.53-.497 1.085-.769 1.637-.39.741-.805 1.491-1.207 2.248-.302.569-.607 1.136-.897 1.752-.115.187-.193.434-.31.728h2.658c.115-.181.248-.35.338-.54.21-.442.383-.902.607-1.336a.534.534 0 0 1 .382-.243c.669-.025 1.339-.013 2.008-.014h2.844c.204.61.424 1.195.59 1.796.071.256.123.367.432.362.691-.01 1.317-.003 1.976-.008.113 0 .225-.025.43-.05L49.751 7.522zM31.155 18.74a4.527 4.527 0 0 1-1.847.65c-.912.116-1.753.043-2.614-.332-1.202-.524-1.694-1.519-1.923-2.676-.213-1.286.018-2.537.697-3.708.793-1.365 2.007-1.974 3.532-2.135.643-.075 1.313.016 2 .255.535.205 1 .469 1.403.877.082.084.19.143.287.214l.124-.028c.103-.963.186-1.926.308-2.858-.769-.56-1.581-.886-2.447-1-1.394-.122-2.793-.073-4.097.521A7.5 7.5 0 0 0 25 9.476a6.87 6.87 0 0 0-1.285 1.261c-.5.654-.939 1.365-1.138 2.18-.182.745-.4 1.492-.465 2.249-.06.71-.005 1.448.123 2.151.115.63.317 1.274.625 1.833.669 1.214 1.694 2.099 3.006 2.54.78.31 1.626.31 2.448.457.25.035.52-.147.781-.147.905 0 1.744-.363 2.552-.745.178-.084.353-.333.353-.524.139-.896.182-1.797.252-2.731-.404.247-.734.521-1.097.742zm10.77 2.983c.075-.799.144-1.57.221-2.413h-.596l-4.146.01c-.218.001-.404-.019-.404-.321v-1c.142-1.286.298-2.573.41-3.865.083-.944.116-1.892.173-2.839.005-.086.017-.171.026-.296.092-.782.186-1.604.273-2.426.032-.299-.103-.437-.413-.431-.528.01-1.058.005-1.586-.002-.573-.01-.61.054-.674.596C35.07 9.88 35 11 34.922 12.177c-.077.984-.152 1.967-.23 2.95-.043.558-.085 1.115-.138 1.672-.096 1.014-.2 2.029-.302 3.042-.016.159-.057.296-.066.445-.029.468-.049.937-.074 1.438zM67.735 29c-.01-.172-.028-.298-.028-.423-.002-3.478 0-6.956-.005-10.434 0-.453.092-.627.616-.634.902-.01 1.804-.088 2.682-.117a4.95 4.95 0 0 1 2.57.608c.377.245.677.664.904 1.055.472.812.526 1.724.194 2.58-.28.776-.81 1.365-1.668 1.738 0 .033-.11.102-.214.175.097.083.158.164.214.2.58.252.867.705 1 1.252.232.535.361 1.103.524 1.66.19.65.394 1.34.585 1.947.032.109.03.227.048.393h-1.522c-.135-.48-.29-1-.419-1.46-.216-.66-.216-1.352-.501-1.98-.202-.56-.454-1.097-1.074-1.267-.446-.122-.918-.161-1.38-.208-.261-.03-.6-.005-.951-.005-.034.297-.087.56-.089.824-.01 1.21-.004 2.42-.007 3.629 0 .138-.016.275-.026.467zm3.411-6.106c.854-.037 1.854-.592 2.092-1.543.432-1.46-.589-2.638-1.908-2.771-.523-.054-1.056-.017-1.585-.01-.375.007-.523.155-.525.534-.006 1.124-.006 2.246.001 3.369.001.132.054.265.09.426.689 0 1.244.02 1.835-.005zM114.263 13h-1.186V1h1.523v4.79c.4-.313.765-.606 1.144-.79.882-.56 1.854-.612 2.785-.285 1.207.425 1.878 1.354 2.22 2.595.2.69.251 1.451.142 2.167-.06.626-.193 1.294-.491 1.836a3.451 3.451 0 0 1-2.046 1.785c-.694.232-1.354.283-2.031.134a2.825 2.825 0 0 1-1.578-.99c-.065-.08-.14-.151-.21-.242h-.138c-.043.349-.086.667-.134 1zm.368-2.799a.761.761 0 0 0 .07.307c.212.44.505.793.879 1.134.576.525 2.049.489 2.618.078.802-.593 1.06-1.473 1.191-2.38.072-.49.065-1.001-.125-1.513-.151-.407-.264-.827-.52-1.177-.416-.544-.965-.816-1.644-.858-.77-.047-1.408.208-1.9.803-.317.405-.592.777-.576 1.307.011.356.003.712.004 1.098 0 .38-.005.791.003 1.201zm9.057 18.243c0 .168-.021.335-.034.556h-1.471c-.029-.189-.089-.377-.09-.565-.005-3.056-.003-6.112-.003-9.168 0-.648 0-1.267.011-1.944.002-.128.06-.255.09-.373h1.515v4.716c.482-.314.907-.666 1.375-.885.496-.26 1.057-.39 1.612-.258.725.175 1.364.477 1.836 1.135.523.73.609 1.55.64 2.342.058 1.546.01 3.07.02 4.593.003.305-.092.407-.407.407h-1.16c-.012-.2-.03-.357-.03-.515-.006-1.63.008-3.261-.022-4.892-.014-.723-.326-1.343-1.011-1.65-.559-.266-1.559-.212-2.06.279-.57.513-.83 1.112-.816 1.881.026 1.446.008 2.897.005 4.341zM73.852 1.331c.708.048 1.407.22 2.222.354-.074.494-.21.876-.32 1.315-.48-.114-.875-.223-1.271-.328-.093-.024-.188-.05-.282-.051-.55-.004-1.116-.08-1.648.018-1.121.208-2.119.64-2.796 1.67-.654.997-.879 2.082-.85 3.228.026 1.004.265 1.976.885 2.798.481.665 1.12 1.137 1.874 1.362.595.177 1.253.181 1.883.19.512.006 1.027-.082 1.536-.158.197-.03.38-.144.604-.233.081.21.14.367.203.504.262.658.031.802-.607.92-.38.08-.765.08-1.147.156-.42.056-.843.173-1.26.153-.503-.023-1-.17-1.5-.229a4.292 4.292 0 0 1-1.556-.64 4.674 4.674 0 0 1-1.544-1.47c-.661-1.025-.975-2.13-.915-3.342.033-.665.028-1.343.168-1.988.115-.56.355-1.059.653-1.56.345-.478.816-1 1.24-1.387.306-.29.71-.486 1.091-.684 1.047-.544 2.184-.676 3.337-.598zM97.063 12.5c0 .16-.063.318-.063.501h-1.433c-.021-.221-.058-.464-.06-.707-.005-1.145.013-2.293-.004-3.434-.017-1.172-.06-2.345-.1-3.517-.018-.51.09-.637.597-.64.22-.003.435-.001.68-.001l.237 1.135c.254-.22.446-.414.666-.568.292-.205.585-.45.916-.55.683-.204 1.402-.293 2.09-.023.804.305 1.411.866 1.66 1.724.464 1.442.275 2.923.31 4.39.017.72.003 1.442.003 2.191-.505 0-.965.065-1.417 0-.093 0-.226-.256-.228-.406-.018-1.48-.01-2.959-.015-4.438-.001-.493.002-.978-.249-1.442-.2-.37-.467-.664-.85-.714-.803-.25-1.552-.192-2.15.462-.37.405-.592.874-.591 1.436.003 1.534.002 3.102.001 4.6zm92.11 12.68c.05.334.054.623.137.888.239.756.69 1.372 1.435 1.678.792.318 1.615.255 2.437.134.383-.066.762-.145 1.171-.224.077.345.139.695.21 1.057-.498.106-.93.22-1.37.288-.558.08-1.134.229-1.68.165-1.093-.165-2.177-.399-2.879-1.359-.283-.387-.463-.806-.634-1.296-.393-.825-.299-1.714-.174-2.51.174-1.091.607-2.056 1.523-2.747.857-.647 1.816-.878 2.833-.716.818.128 1.526.463 2.05 1.21.768 1.04.835 2.165.768 3.432zM193.435 24c.264-.26.032-1.115-.508-1.82-.454-.592-1.671-.733-2.54-.27-.451.239-1.324 1.623-1.042 2.09zM82.292 13c-.064-.233-.127-.488-.204-.794-.088.09-.19.15-.262.219a3.18 3.18 0 0 1-2.12.915c-.968.04-2.175-.539-2.52-1.716-.296-1.012-.023-1.819.578-2.542.236-.34.748-.55 1.161-.757.853-.425 1.782-.491 2.719-.475.083.002.166-.02.241-.03.218-.885-.26-1.875-1.253-2.069-.848-.166-1.544.166-2.293.38-.107.03-.222.032-.339.05a17.811 17.811 0 0 1-.316-.873c.179-.1.368-.208.562-.308.754-.411 1.61-.48 2.46-.444 1.346.056 2.294.773 2.628 2.162.09.415.12.85.127 1.282.017 1.181-.004 2.37.013 3.557.005.36.087.719.13 1.079.013.114.015.231.025.364zM80 9.094c-.825.22-1.377.783-1.362 1.657.006.364.156.83.362 1.065.76.658 2.224.314 2.734-.601.403-.724.17-1.493.266-2.361-.752.08-1.42.068-2 .24zm27.9-3.319c-.22-.018-.438-.153-.648-.134-.302.026-.599.137-.895.225-.357.134-.702.22-1.102.346-.11-.341-.255-.654-.31-.955 1.055-.63 2.21-.816 3.373-.682a2.622 2.622 0 0 1 2.299 2.218c.067.455.11.917.117 1.377.017 1.253.004 2.506.014 3.758.003.344.049.688.079 1.072h-1.335l-.09-.764c-.517.326-1.003.673-1.526.948-.245.128-.559.155-.876.167a2.759 2.759 0 0 1-1.736-.507c-.362-.262-.663-.633-.765-1.106-.064-.297-.143-.594-.175-.895-.064-.599.196-1.143.51-1.59.322-.459.863-.72 1.4-.956.94-.41 1.925-.447 2.93-.456.212-.91-.26-1.98-1.265-2.066zm-.643 3.308c-.606.173-1.137.524-1.257 1.256-.155.462 0 1.259.31 1.513.895.636 2.323.238 2.769-.8.288-.67.165-1.394.157-2.2-.708.074-1.37.058-1.979.231zm-29.48 16.091c.07.41.077.77.223 1.086.216.642.639 1.16 1.276 1.455.256.118.543.208.822.228.816.057 1.632.057 2.42-.226.089-.03.191-.024.345-.041.137.324.137.574.29.928-.153.074-.289.198-.46.238-.343.08-.693.158-1.046.158-.473.075-.959.227-1.42.172-1.085-.172-2.138-.372-2.913-1.284-.314-.397-.511-.836-.706-1.297-.25-.591-.315-1.195-.28-1.817.04-.717.219-1.4.514-2.061.413-.925 1.04-1.605 2.01-1.957.68-.247 1.39-.393 2.08-.212.889.233 1.656.66 2.068 1.568.53.958.726 1.888.616 3.062zM82.16 24c-.07-.7-.16-1.323-.71-1.85-.7-.692-1.873-.789-2.598-.15-.41.383-.685.842-.852 1.346-.112.2-.134.421-.193.654zm23.21 5c-.066-.274-.131-.53-.196-.783-.362.236-.713.484-1.082.7-.707.415-1.48.52-2.243.253-.584-.17-1.073-.548-1.392-1.17-.375-.716-.376-1.425-.138-2.13.268-.794.9-1.27 1.681-1.603.864-.39 1.788-.474 2.732-.469.268.002.348-.103.353-.35a1.736 1.736 0 0 0-1.328-1.739c-.93-.222-1.694.123-2.487.466-.036.015-.084.005-.142.008-.128-.234-.25-.46-.315-.705-.029-.11.059-.336.187-.38.944-.451 2-.74 3.052-.566 1.016.164 1.869.598 2.248 1.71.18.529.293 1.038.292 1.586 0 1.307-.004 2.614.007 3.921.004.396.055.79.087 1.251zm-2.426-3.87c-.618.218-1.036.565-1.242 1.203-.22.667.367 1.667 1.073 1.8.973.127 1.878-.36 2.225-1.267.15-.6.086-1.288.14-1.944-.691-.146-1.626.006-2.196.207zm-9.733.045c-.138.473-.01.898.158 1.296.394.945 1.157 1.407 2.147 1.477.77.052 1.545.052 2.285-.236.049-.02.106-.02.199-.022 0-.003.109 0 .233 0 .058.31.114.647.177 1.005-.356.1-.655.22-.965.305-.696.051-1.445.227-2.093.15-1.078-.15-2.147-.427-2.843-1.373-.336-.455-.672-.94-.712-1.54-.044-.664-.147-1.334-.094-1.99.09-1.105.514-2.078 1.37-2.842.428-.405.927-.554 1.44-.752.487-.186.958-.195 1.417-.131 1.07.15 1.955.578 2.458 1.644.248.525.422 1.038.45 1.612.008.155.162.307.162.458 0 .301-.105.6-.151.939zM97.461 24c.049-.616-.333-1.688-.89-2.073-.728-.506-1.674-.514-2.326.023-.633.521-1.076 1.173-1.057 2.05zm69.685 5c-.09-.276-.146-.517-.27-.789-.09.064-.162.12-.24.168-.428.262-.835.57-1.291.765a2.43 2.43 0 0 1-1.043.14c-.668-.04-1.302-.284-1.761-.765-.541-.63-.816-1.39-.627-2.218.234-1.022.906-1.678 1.886-2.06.697-.241 1.404-.421 2.146-.435.256-.004.512 0 .796 0 .08-.49.04-.891-.164-1.313-.31-.642-.919-.78-1.488-.89-.369-.07-.795.102-1.182.21-.36.1-.704.261-1.095.411-.073-.29-.144-.533-.194-.78-.052-.259.088-.444.324-.444.39-.137.807-.177 1.168-.342.473-.215.953-.179 1.425-.14.995.08 1.888.419 2.348 1.39.201.423.356.904.382 1.368.058 1.045.013 2.095.03 3.142.01.582.066 1.18.093 1.771.011.246.002.492.002.811zm-1.93-4c-.619 0-1.125.316-1.532.815-.407.499-.358 1.042-.146 1.54.217.507.673.822 1.27.779.277-.02.558-.134.824-.188.617-.211.989-.725 1.127-1.292.133-.548.028-1.153.028-1.844-.558.056-1.066.097-1.57.19zM93.06 12.537V13h-1.49c-.01-.143-.025-.29-.025-.438-.002-1.317-.029-2.635.009-3.951.019-.673-.15-1.293-.36-1.906-.128-.38-.456-.628-.83-.705-.659-.247-1.364-.221-1.896.198-.41.298-.71.703-.798 1.221-.063.365-.132.733-.138 1.1-.024 1.403-.022 2.806-.032 4.21-.001.094-.02.188-.033.271H86v-.448-7.385c0-.339.106-.474.43-.464.226.006.453.001.674.001.384.296.161.692.308 1.093.091-.051.19-.081.25-.146.794-.834 1.758-1.251 2.903-1.078.774.116 1.435.508 1.87 1.188.227.333.306.69.433 1.049.355 1.01.132 2.047.184 3.07.036.885.008 1.771.008 2.657zm46.433 8.263c.233-.257.68-.133 1.038-.07.618.108.163.729.412 1.065.156-.143.303-.306.477-.43.316-.225.58-.487.978-.624.378-.147.802-.201 1.21-.235.622-.05 1.188.206 1.682.494.317.237.542.614.71 1 .467.65.516 1.442.515 2.24-.002 1.404 0 2.76 0 4.213V29H145v-.478-3.954c0-.568-.159-1.206-.268-1.804-.06-.32-.793-.847-1.113-.912-.466-.094-.915-.081-1.342.148-.787.347-1.277 1-1.277 1.853V29h-1.507zm43.611 6.387l.103.028c.182-.495.37-.988.544-1.486.249-.82.568-1.646.849-2.47.221-.65.455-1.259.655-1.957.14-.463.279-.598.745-.596.253.001.491-.004.728.01.095.007.188.058.333.106-.248.585-.483 1.127-.708 1.674-.105.255-.19.504-.285.78-.21.589-.411 1.181-.636 1.724-.26.71-.544 1.37-.81 2-.223.6-.427 1.168-.622 1.728-.076.104-.19.272-.277.272h-1.373l-3.103-8.261c.64-.018 1.185-.152 1.668.092.744 2.169 1.467 4.257 2.19 6.356zm-29.868-8.352c.508-.188.934-.463 1.508-.387v2.235h1.95c.306.406.222.766.076 1.189-.495 0-1.009-.002-1.522 0-.449.002-.497.042-.497.474-.003 1.36-.024 2.72.018 4.08.012.402.018.842.378 1.186.23.221.467.23.73.241.286.011.574.002.897.002V29c-.56.075-1.118.199-1.666.164-.928-.06-1.701-.867-1.742-1.8-.067-1.506-.08-3.014-.113-4.52-.007-.3-.001-.6-.001-.96H152V20.74c.436-.02.807-.04 1.236-.062zm-68.133 9.279c.079-.194.118-.404.19-.653.139.058.242.097.342.144.855.395 1.737.557 2.637.187.578-.237.644-.995.483-1.439-.235-.652-.837-.818-1.392-1.033-.717-.32-1.363-.61-1.853-1.258a1.94 1.94 0 0 1-.348-1.427c.101-.775.529-1.38 1.203-1.74.71-.379 1.503-.525 2.303-.366.461.092.9.3 1.332.471-.08.354-.185.66-.313 1-.285 0-.56-.155-.845-.196-.618-.09-1.242-.256-1.842.196-.445.296-.484 1.185 0 1.514.304.265.681.405 1.067.575.742.326 1.521.646 1.933 1.379.34.532.415 1.145.266 1.75-.266 1.104-1.043 1.646-2.13 1.782-.418.075-.843.205-1.253.17a6.11 6.11 0 0 1-1.545-.351c-.338-.104-.338-.343-.235-.705zM130.72 4.725c.211.026.401.22.67.378-.133.327-.258.633-.391.986-.315-.089-.584-.182-.86-.235-.637-.124-1.291-.245-1.852.205-.462.37-.495 1.052-.018 1.477.579.514 1.344.646 1.99 1.02.74.444 1.362 1.011 1.367 2.01.004.659-.083 1.282-.576 1.733-.325.297-.73.548-1.145.701-.464.15-.984.253-1.471.224-.587-.035-1.169-.224-1.743-.372-.169-.046-.305-.207-.44-.304l.367-.993c.107.026.24.034.381.089.797.413 1.65.548 2.535.226.36-.132.546-.438.576-.812.034-.443.062-.907-.417-1.16-.64-.337-1.306-.63-1.932-.991-.301-.174-.535-.464-.762-.699-.539-.442-.46-1.03-.462-1.607-.001-.418.211-.73.462-1.032.418-.569 1-.926 1.706-.975.666-.048 1.347.047 2.015.131zm-12.596 15.949c.717.018 1.442-.032 2.189.378-.096.376-.191.747-.314 1.148-.827-.432-1.682-.425-2.5-.288a2.288 2.288 0 0 0-1.5.929c-.615.878-.674 1.836-.51 2.875.167 1.054.808 1.663 1.705 2.034.516.25 1.086.303 1.668.118.383-.12.793-.16 1.23-.243.065.375.13.683.203 1.067-.296.099-.542.224-.806.308-.695.063-1.39.338-2.096.16-.895-.225-1.785-.449-2.46-1.16-.66-.78-1.02-1.6-1.022-2.57a19.2 19.2 0 0 1 .088-1.826c.143-.604.49-1.18.936-1.656.866-.948 1.94-1.305 3.189-1.274zm55.587 7.198c.288-.024.53-.03.835-.045V29c-.49.057-.97.22-1.43.173-.98-.1-2.002-.682-1.994-1.948.01-1.61-.006-3.225-.014-4.828-.002-.46-.109-.513-.53-.523-.216-.005-.432-.01-.648-.018-.03-.001-.06-.019-.152-.048 0-.299-.017-.618.015-.932.006-.064.206-.15.302-.157.317-.022.637-.008.997-.008v-1.957l1.28-.392c.22.815-.11 1.638.258 2.298.686.155 1.369-.092 2.038.15v1.045h-2.064c-.054.351-.136.653-.142.957-.017.906-.026 1.813.003 2.72.018.544.085 1.092.184 1.628.09.487.545.757 1.062.712zm-38.517-10.34h1.412c.017.145.044.27.044.393.003 3.562.001 7.075.008 10.686 0 .294-.099.389-.395.389h-1.069zM109 21.062v-.321h1.264l.067 1.43c.255-.343.444-.632.669-.892.46-.539 1.066-.77 1.769-.78.231-.002.362.105.363.345v1.047c-.29.032-.575.048-.854.109-.544.087-.95.344-1.278.842-.423.666-.465 1.392-.49 2.158-.043 1.146-.012 2.335-.011 3.523V29h-1.4c-.029-.145-.099-.283-.099-.422v-7.516zm41.517 7.416c0 .157-.02.314-.032.522H149.1c-.101 0-.17-.23-.172-.342-.016-.734-.009-1.469-.01-2.204 0-1.718-.002-3.454 0-5.153 0-.582.013-.59.608-.594.194-.001.39.01.583.002.295-.014.406.133.405.412-.004.734 0 1.469 0 2.203.002 1.676.003 3.436.002 5.154zM122.87 13c-.009-.13-.022-.256-.022-.383 0-2.485.006-4.97-.003-7.453-.002-.352.155-.492.471-.467.31.021.623.004.913.004.152.299.214 7.71.083 8.299zm53.463 7.756h1.446V29h-1.446zm-17.69-.035c.445 0 .853-.016 1.257.014.1.006.19.19.2.265.03.356.015.682.015 1v7h-1.472zm-.34-2.333a.924.924 0 0 1 .965-.88c.542.01.977.422.969.92-.01.572-.43.888-1.042.927-.474.03-.926-.518-.893-.967zM123.564 3.404c-.565-.03-.918-.404-.92-.941-.07-.575.42-.942.931-.91.617.037.867.285.917.9.042.547-.493.976-.928.95zm52.537 15.043c.026-.516.267-.97.898-.936.564-.002 1 .415 1 .938 0 .394-.436.936-1 .9-.545-.035-.925-.349-.898-.902zM150.396 19c-.246.393-.725.449-1.396.167-.328-.664-.315-1.167 0-1.433.482-.364 1-.275 1.323.016.27.25.307.899.073 1.25zM49.231 12.947l.129-.031c.087.303.17.607.263.91.24.785.49 1.568.722 2.356.088.297.159.603.193.91.01.085-.139.267-.217.269-.948.019-1.895.012-2.874.012-.11-.454.128-.785.283-1.134.09-.239.184-.402.27-.603.162-.346.317-.694.475-1.04.251-.596.525-1.099.756-1.649z"/></g></g></g></svg>