<svg xmlns="http://www.w3.org/2000/svg" width="20" height="20"><defs><clipPath id="a"><path d="M0 0h20v20H0z"/></clipPath></defs><g clip-path="url(#a)"><path fill="#566180" d="M18.52 0C19.336 0 20 .646 20 1.442v17.115c0 .797-.664 1.443-1.48 1.443H1.476C.662 20 0 19.354 0 18.557V1.442C0 .646.662 0 1.476 0zM3 17h2.933V7.498H3zM4.449 6.194a1.72 1.72 0 10-.002-3.441 1.72 1.72 0 00.002 3.44zM17 11.808c0-2.57-.512-4.547-3.515-4.547-1.485 0-2.412.791-2.807 1.542h-.04V7.498H7.793V17h2.963v-4.678c0-1.245.243-2.452 1.779-2.452 1.522 0 1.54 1.424 1.54 2.53V17H17z"/></g></svg>