<svg xmlns="http://www.w3.org/2000/svg" width="175" height="32"><path fill="#4a7eff" d="M113 18.775a1.087 1.087 0 10.001-2.175 1.087 1.087 0 00-.001 2.175zm-1.793-1.088c0-.6-.487-1.088-1.088-1.088-.6 0-1.119.487-1.119 1.088 0 .601.518 1.088 1.12 1.088.6 0 1.087-.487 1.087-1.088zm-3.26 0a1.088 1.088 0 10-2.175 0 1.088 1.088 0 002.176 0zm-3.257 0a1.088 1.088 0 10-2.176 0 1.088 1.088 0 002.176 0zm-3.26 0a1.088 1.088 0 10-2.175 0 1.088 1.088 0 002.176 0zm-3.259 0a1.085 1.085 0 10-2.171 0 1.084 1.084 0 102.171 0zm-3.259 0a1.088 1.088 0 10-2.176 0 1.088 1.088 0 002.176 0zm-3.259 0c0-.6-.486-1.088-1.087-1.088-.566 0-1.088.487-1.088 1.088 0 .601.522 1.088 1.088 1.088.6 0 1.087-.487 1.087-1.088zm-3.258 0a1.088 1.088 0 10-2.176 0 1.088 1.088 0 002.176 0zm-3.259 0c0-.6-.487-1.088-1.136-1.088-.552 0-1 .487-1 1.088 0 .601.448 1.088 1 1.088.65 0 1.136-.487 1.136-1.088zM113 21.15a.81.81 0 00-.807-.825.827.827 0 00-.827.825c0 .457.37.85.827.85.456 0 .807-.393.807-.85zm-3 0c0-.456-.42-.825-.875-.825a.826.826 0 00-.826.825c0 .457.37.85.826.85.455 0 .875-.393.875-.85zm-3.116 0a.827.827 0 00-1.654 0c0 .457.37.85.827.85.456 0 .827-.393.827-.85zm-3.068 0a.824.824 0 00-.816-.825.829.829 0 00-.837.825c0 .457.37.85.837.85.446 0 .816-.393.816-.85zm-3.068 0a.826.826 0 00-1.653 0c0 .457.37.85.827.85.456 0 .826-.393.826-.85zm-3.068 0a.826.826 0 00-.825-.825c-.457 0-.855.37-.855.825 0 .457.398.85.855.85.456 0 .825-.393.825-.85zm-3.067 0a.826.826 0 00-.826-.825c-.456 0-.787.37-.787.825 0 .457.331.85.787.85s.826-.393.826-.85zm-3.067 0a.827.827 0 00-1.653 0c0 .457.37.85.827.85.456 0 .826-.393.826-.85zm-3.067 0a.827.827 0 00-1.654 0c0 .457.371.85.827.85.456 0 .827-.393.827-.85zm-3.068 0c0-.456-.411-.825-.826-.825a.827.827 0 00-.827.825c0 .457.37.85.827.85.415 0 .826-.393.826-.85zm26.37 2.7a.701.701 0 10-1.403 0 .701.701 0 001.403 0zm-3.1 0a.697.697 0 00-.681-.7.706.706 0 00-.722.7c0 .388.314.702.722.702a.697.697 0 00.682-.701zm-3.098 0a.701.701 0 10-1.403 0 .701.701 0 001.403 0zm-3.1 0a.701.701 0 10-1.402 0 .701.701 0 001.403 0zm-3.098 0a.701.701 0 00-.702-.7.686.686 0 00-.683.7c0 .388.296.702.683.702a.701.701 0 00.702-.701zm-3.099 0a.684.684 0 00-.702-.7.701.701 0 100 1.402.684.684 0 00.702-.701zm-3.099 0a.701.701 0 10-1.403 0 .701.701 0 001.403 0zm-3.099 0a.701.701 0 10-1.403 0 .701.701 0 001.403 0zm-3.088 0a.71.71 0 00-.712-.7.701.701 0 100 1.402.71.71 0 00.712-.701zm23 2.339c0-.347-.258-.627-.604-.627-.396 0-.628.28-.628.627s.232.628.628.628c.346 0 .604-.281.604-.628zm-5.432 0a.628.628 0 10-1.255.001.628.628 0 001.255-.001zm2.728 0a.637.637 0 00-.627-.627c-.347 0-.669.28-.669.627s.322.628.669.628a.637.637 0 00.627-.628zm-5.455 0a.628.628 0 10-1.256.001.628.628 0 001.256-.001zm-2.729 0a.628.628 0 10-1.255.001.628.628 0 001.255-.001zm-2.727 0a.628.628 0 10-1.255.001.628.628 0 001.255-.001zm-5.456 0a.628.628 0 00-.628-.627c-.301 0-.628.28-.628.627s.327.628.628.628a.628.628 0 00.628-.628zm2.728 0c0-.347-.282-.627-.657-.627-.318 0-.6.28-.6.627s.282.628.6.628c.375 0 .657-.281.657-.628zm-5.456 0a.628.628 0 10-1.256.001.628.628 0 001.256-.001zm9.558 4.132a.324.324 0 00-.335-.321.323.323 0 00-.335.321.334.334 0 00.67 0zm-2.22 0a.324.324 0 00-.334-.321c-.205 0-.335.137-.335.321s.13.334.335.334c.184 0 .334-.15.334-.334zm-2.219 0A.32.32 0 0093 30c-.199 0-.35.137-.35.321s.151.334.35.334c.17 0 .32-.15.32-.334zm11.096 0a.324.324 0 00-.335-.321.323.323 0 00-.334.321.334.334 0 00.67 0zm-2.219 0c0-.184-.197-.321-.335-.321a.324.324 0 00-.334.321c0 .184.15.334.334.334.138 0 .335-.15.335-.334zm-2.197 0c0-.184-.172-.321-.357-.321a.323.323 0 00-.335.321c0 .184.15.334.335.334.185 0 .357-.15.357-.334zm7.492-1.837A.485.485 0 00107 28c-.287 0-.512.207-.512.484s.225.516.512.516c.267 0 .492-.239.492-.516zm-2.492 0a.489.489 0 00-.504-.484.483.483 0 00-.496.484c0 .277.22.516.496.516a.516.516 0 00.504-.516zm-2.496 0A.488.488 0 00102 28c-.275 0-.5.207-.5.484s.225.516.5.516a.514.514 0 00.504-.516zm-2.504 0a.479.479 0 00-.492-.484c-.278 0-.508.206-.508.484 0 .277.23.516.508.516a.506.506 0 00.492-.516zm-2.484 0c0-.278-.225-.484-.516-.484a.484.484 0 00-.488.484c0 .277.225.516.488.516.29 0 .516-.239.516-.516zm-2.516 0a.47.47 0 00-.48-.484c-.278 0-.52.206-.52.484a.53.53 0 00.52.516c.276 0 .48-.239.48-.516zm-2.472 0c0-.278-.225-.484-.528-.484a.481.481 0 00-.476.484c0 .277.225.516.476.516a.52.52 0 00.528-.516zm-2.528 0c0-.278-.192-.484-.469-.484-.277 0-.531.206-.531.484 0 .277.254.516.531.516s.469-.239.469-.516zm-4.565-12.57c0-7.217 5.872-13.09 13.09-13.09 7.217 0 13.09 5.873 13.09 13.09h2.634c0-8.67-7.054-15.724-15.725-15.724C89.854.19 82.8 7.244 82.8 15.914z"/><path fill="#262626" d="M30.155 15.537c0 10.935-4.155 15.653-15.078 15.653C4.143 31.19 0 26.472 0 15.537 0 4.604 4.143 0 15.077 0 26 0 30.155 4.604 30.155 15.537M15.077 28.485C23.71 28.485 27 25.32 27 15.537c0-9.783-3.29-12.833-11.923-12.833-8.632 0-11.97 3.05-11.97 12.833 0 9.783 3.338 12.948 11.97 12.948M36.13 10.823C36.13 3.918 39.41.35 46.316.35h5.293v2.705h-5.293c-5.18 0-7.193 2.704-7.193 8.46v19.334H36.13zM67.51 30.85c-10.358 0-12.89-5.468-12.89-15.25C54.62 6.39 57.152.35 67.51.35h10.244v2.704H67.51c-8.057 0-9.783 4.489-9.783 12.545 0 8.632 1.726 12.545 9.783 12.545h10.934v2.705zm51.56-2.705h17.494c3.625 0 4.374-1.899 4.374-4.948 0-3.626-2.244-4.145-8.402-5.583l-5.294-1.209c-5.065-1.15-8.632-2.877-8.632-8.689 0-4.776 3.05-7.366 7.653-7.366h15.825v2.705h-15.825c-3.453 0-4.546 1.438-4.546 4.661 0 4.2 2.13 5.006 6.56 6.042L133.801 15C140.65 16.578 144 17.557 144 23.197c0 4.718-1.565 7.653-7.436 7.653H119.07zM167 .34c5.065 0 7.31 2.82 7.31 7.66v18.811c0 2.706-.748 4.03-4.432 4.03H158.14c-6.042 0-8.229-2.841-8.229-9.209 0-6.33 2.243-9.034 8.23-9.034h13.177V7.476C171.317 5.174 170.224 3 167 3h-14.788V.34zm-9.666 14.962c-3.684 0-4.334 2.648-4.334 6.33 0 3.683.65 6.503 4.334 6.503h12.544c1.036 0 1.44-.69 1.44-1.38V15.301z"/></svg>