<svg xmlns="http://www.w3.org/2000/svg" width="60" height="60"><defs><linearGradient id="a" x1="2.59" x2="57.4" y1="17.79" y2="42.2" gradientUnits="userSpaceOnUse"><stop offset="0" stop-color="#57f6bd"/><stop offset="1" stop-color="#4a7eff"/></linearGradient></defs><path fill="url(#a)" d="M30 60c16.569 0 30-13.431 30-30C60 13.431 46.569 0 30 0 13.431 0 0 13.431 0 30c0 16.569 13.431 30 30 30z"/><path fill="none" stroke="#fff" stroke-linecap="round" stroke-linejoin="round" stroke-miterlimit="20" stroke-width="2.09" d="M30 46.676c9.211 0 16.676-7.465 16.676-16.676 0-9.205-7.465-16.67-16.676-16.67-9.205 0-16.67 7.465-16.67 16.67 0 9.211 7.465 16.676 16.67 16.676z"/><path fill="none" stroke="#fff" stroke-linecap="round" stroke-linejoin="round" stroke-miterlimit="20" stroke-width="2.09" d="M30 19.88V30l9.458 5.584v0"/></svg>