<svg xmlns="http://www.w3.org/2000/svg" width="60" height="60"><defs><linearGradient id="a" x1="2.59" x2="57.4" y1="17.79" y2="42.2" gradientUnits="userSpaceOnUse"><stop offset="0" stop-color="#57f6bd"/><stop offset="1" stop-color="#4a7eff"/></linearGradient></defs><path fill="url(#a)" d="M30 60c16.569 0 30-13.431 30-30C60 13.431 46.569 0 30 0 13.431 0 0 13.431 0 30c0 16.569 13.431 30 30 30z"/><path fill="none" stroke="#fff" stroke-linecap="round" stroke-linejoin="round" stroke-miterlimit="20" stroke-width="1.73" d="M14.67 37.055v0-7.166 0l6.204-3.579v0l6.203 3.58v7.165l-6.203 3.58v0l-6.204-3.58v0zm12.41 0v0-7.166 0l6.204-3.579v0l6.21 3.58v7.165l-6.21 3.58v0l-6.204-3.58v0zm9.375-1.325l-3.105 1.79M43 24.94l-3.12 1.79m-15.975 9L20.8 37.52"/><path fill="none" stroke="#fff" stroke-linecap="round" stroke-linejoin="round" stroke-miterlimit="20" stroke-width="1.73" d="M33.28 26.545v0-7.159 0l6.21-3.586v0l6.205 3.586v7.16l-6.204 3.586v0l-6.211-3.587v0zM20.874 47.308V40.63m-6.206-10.74L9.83 26.31m29.66 10.74l4.18 3.58M39.484 15.8V9.83"/></svg>