<svg xmlns="http://www.w3.org/2000/svg" width="154" height="51" viewBox="0 0 154 51"><g><g><g><path fill="#4a7eff" d="M27.514 1c11.427 0 16.314 7 16.314 15 0 6.197-3.007 12.86-10.75 15L44.88 51H35L23.455 31.674H10.224c-.827 0-1.278.326-1.278 1.26V51H.076V31.23c0-5.627 2.405-7.923 7.924-7.923h19.815c5.037 0 7.067-3.406 7.067-6.96s-2.18-6.59-7.067-6.59H0V1h27.514"/></g><g><path fill="#4a7eff" d="M53 51h9.22V1H53z"/></g><g><path fill="#4a7eff" d="M109.14 1v8.757H94.256V51h-8.991V9.757H70.38V1h38.76"/></g><g><path fill="#4a7eff" d="M154 23.425c0 7.308-3.637 11.452-13.339 11.452h-18.734v2.863c0 3.164 1.717 5.5 6.073 5.5h24.08V51H128c-9.879 0-13.76-5.575-13.76-13.11V24.33c0-7.535 3.881-13.11 13.76-13.11h12.736c9.33 0 13.264 4.52 13.264 12.205zm-32.073 5.199h18.51c4.254 0 5.821-1.808 5.821-4.747 0-3.013-1.717-4.972-5.597-4.972H128c-4.356 0-6.073 2.41-6.073 5.5z"/></g><g><path fill="#4a7eff" d="M145.092 4.08V.482h-1.272V0h3.06v.482h-1.277V4.08h-.511"/></g><g><path fill="#4a7eff" d="M147.9 4.08V0h.852l1.011 2.889c.094.269.161.47.237.604 0-.149.093-.367.195-.654L151.219 0H152v4.08h-.565V.665l-1.243 3.415h-.511L148.445.607V4.08h-.545"/></g></g></g></svg>