<svg xmlns="http://www.w3.org/2000/svg" width="81" height="78" viewBox="0 0 81 78"><g><g><g><path fill="#4a7eff" d="M77.782 47.581a2.793 2.793 0 0 0 2.802-2.786A2.801 2.801 0 0 0 77.782 42 2.784 2.784 0 0 0 75 44.795a2.776 2.776 0 0 0 2.782 2.786zm-4.618-2.786A2.801 2.801 0 0 0 70.362 42a2.801 2.801 0 0 0-2.803 2.795 2.793 2.793 0 0 0 2.803 2.786 2.793 2.793 0 0 0 2.802-2.786zm-8.393 0C64.77 43.255 63.517 42 62 42c-1.58 0-2.834 1.256-2.834 2.795 0 1.54 1.254 2.786 2.834 2.786a2.786 2.786 0 0 0 2.77-2.786zm-8.394 0A2.801 2.801 0 0 0 53.575 42a2.784 2.784 0 0 0-2.802 2.795 2.776 2.776 0 0 0 2.802 2.786 2.793 2.793 0 0 0 2.802-2.786zm-8.377 0C48 43.255 46.73 42 45.182 42a2.801 2.801 0 0 0-2.803 2.795 2.793 2.793 0 0 0 2.803 2.786c1.548 0 2.818-1.247 2.818-2.786zm-8.41 0A2.801 2.801 0 0 0 36.789 42 2.79 2.79 0 0 0 34 44.795c0 1.54 1.24 2.786 2.788 2.786a2.793 2.793 0 0 0 2.803-2.786zm-8.393 0A2.801 2.801 0 0 0 28.395 42a2.801 2.801 0 0 0-2.803 2.795 2.793 2.793 0 0 0 2.803 2.786 2.793 2.793 0 0 0 2.802-2.786zm-8.393 0A2.801 2.801 0 0 0 20 42a2.801 2.801 0 0 0-2.801 2.795A2.793 2.793 0 0 0 20 47.581a2.793 2.793 0 0 0 2.804-2.786zm-8.393 0A2.801 2.801 0 0 0 11.608 42a2.801 2.801 0 0 0-2.802 2.795 2.793 2.793 0 0 0 2.802 2.786 2.793 2.793 0 0 0 2.803-2.786zm-8.411 0A2.787 2.787 0 0 0 3.215 42a2.801 2.801 0 0 0-2.803 2.795 2.793 2.793 0 0 0 2.803 2.786A2.779 2.779 0 0 0 6 44.795zm71.83 8.87c0-1.17-.952-2.117-2.127-2.117a2.122 2.122 0 0 0-2.126 2.118c0 1.167.952 2.114 2.126 2.114a2.121 2.121 0 0 0 2.127-2.114zm-7.901 0c0-1.17-.929-2.117-2.127-2.117a2.122 2.122 0 0 0-2.127 2.118c0 1.167.953 2.114 2.127 2.114a2.106 2.106 0 0 0 2.127-2.114zm-7.929 0c0-1.17-.925-2.117-2.1-2.117a2.122 2.122 0 0 0-2.126 2.118A2.12 2.12 0 0 0 59.9 55.78c1.175 0 2.1-.947 2.1-2.114zm-7.874 0c0-1.17-.953-2.117-2.126-2.117a2.122 2.122 0 0 0-2.128 2.118c0 1.167.953 2.114 2.128 2.114a2.12 2.12 0 0 0 2.126-2.114zm-7.898 0c0-1.17-.953-2.117-2.127-2.117-1.178 0-2.101.947-2.101 2.118 0 1.167.923 2.114 2.1 2.114a2.121 2.121 0 0 0 2.128-2.114zm-7.902 0c0-1.17-.952-2.117-2.127-2.117-1.199 0-2.126.947-2.126 2.118 0 1.167.927 2.114 2.126 2.114a2.121 2.121 0 0 0 2.127-2.114zm-7.901 0c0-1.17-.953-2.117-2.127-2.117a2.122 2.122 0 0 0-2.127 2.118c0 1.167.953 2.114 2.127 2.114a2.121 2.121 0 0 0 2.127-2.114zm-7.902 0c0-1.17-.952-2.117-2.127-2.117a2.122 2.122 0 0 0-2.127 2.118c0 1.167.953 2.114 2.127 2.114a2.121 2.121 0 0 0 2.127-2.114zm-7.901 0c0-1.17-.953-2.117-2.127-2.117a2.122 2.122 0 0 0-2.127 2.118c0 1.167.953 2.114 2.127 2.114a2.121 2.121 0 0 0 2.127-2.114zm-7.898 0c0-1.17-.953-2.117-2.127-2.117a2.122 2.122 0 0 0-2.127 2.118c0 1.167.952 2.114 2.127 2.114a2.121 2.121 0 0 0 2.127-2.114zm67.92 6.911c0-.992-.811-1.797-1.809-1.797-.997 0-1.835.805-1.835 1.797 0 .992.838 1.798 1.835 1.798.998 0 1.808-.806 1.808-1.798zm-7.982 0c0-.992-.81-1.797-1.808-1.797S63 59.584 63 60.576c0 .992.856 1.798 1.854 1.798.998 0 1.808-.806 1.808-1.798zm-7.981 0c0-.992-.81-1.797-1.808-1.797s-1.808.805-1.808 1.797c0 .992.81 1.798 1.808 1.798.997 0 1.808-.806 1.808-1.798zm-7.985 0c0-.992-.81-1.797-1.808-1.797-.997 0-1.808.805-1.808 1.797 0 .992.81 1.798 1.808 1.798s1.808-.806 1.808-1.798zm-7.98 0c0-.992-.811-1.797-1.809-1.797-.998 0-1.808.805-1.808 1.797 0 .992.81 1.798 1.808 1.798s1.808-.806 1.808-1.798zm-7.982 0c0-.992-.81-1.797-1.808-1.797s-1.808.805-1.808 1.797c0 .992.81 1.798 1.808 1.798.997 0 1.808-.806 1.808-1.798zm-7.981 0c0-.992-.81-1.797-1.808-1.797s-1.809.805-1.809 1.797c0 .992.811 1.798 1.809 1.798.997 0 1.808-.806 1.808-1.798zm-7.981 0c0-.992-.772-1.797-1.772-1.797s-1.845.805-1.845 1.797c0 .992.845 1.798 1.845 1.798s1.772-.806 1.772-1.798zm-7.981 0c0-.992-.791-1.797-1.791-1.797-1 0-1.826.805-1.826 1.797 0 .992.826 1.798 1.826 1.798s1.79-.806 1.79-1.798zm59.328 5.985c0-.885-.724-1.561-1.617-1.561-.894 0-1.618.676-1.618 1.561 0 .888.724 1.608 1.618 1.608.893 0 1.617-.72 1.617-1.608zm-14.053 0c0-.885-.724-1.561-1.618-1.561-.894 0-1.618.676-1.618 1.561 0 .888.724 1.608 1.618 1.608.894 0 1.618-.72 1.618-1.608zm7.025 0c0-.885-.724-1.561-1.618-1.561-.894 0-1.618.676-1.618 1.561 0 .888.724 1.608 1.618 1.608.894 0 1.618-.72 1.618-1.608zm-14.091 0c0-.885-.683-1.561-1.577-1.561-.894 0-1.618.676-1.618 1.561 0 .888.724 1.608 1.618 1.608.894 0 1.577-.72 1.577-1.608zm-7 0c0-.885-.709-1.561-1.602-1.561-.894 0-1.618.676-1.618 1.561 0 .888.724 1.608 1.618 1.608A1.6 1.6 0 0 0 42 66.561zm-7 0c0-.885-.734-1.561-1.627-1.561-.894 0-1.618.676-1.618 1.561 0 .888.724 1.608 1.618 1.608A1.62 1.62 0 0 0 35 66.561zm-14.063 0c0-.885-.724-1.561-1.618-1.561-.894 0-1.618.676-1.618 1.561 0 .888.724 1.608 1.618 1.608.894 0 1.618-.72 1.618-1.608zm7.063 0c0-.885-.762-1.561-1.656-1.561-.894 0-1.618.676-1.618 1.561 0 .888.724 1.608 1.618 1.608.894 0 1.656-.72 1.656-1.608zm-14.088 0c0-.885-.724-1.561-1.618-1.561-.894 0-1.618.676-1.618 1.561 0 .888.724 1.608 1.618 1.608.894 0 1.618-.72 1.618-1.608zm24.615 10.582a.862.862 0 0 0-1.725 0 .86.86 0 0 0 .863.857.86.86 0 0 0 .862-.857zm-5.715 0a.862.862 0 0 0-1.726 0 .86.86 0 0 0 .863.857.86.86 0 0 0 .863-.857zm-5.716 0a.862.862 0 0 0-1.725 0 .86.86 0 0 0 .862.857.86.86 0 0 0 .863-.857zm28.578 0a.862.862 0 0 0-1.725 0 .86.86 0 0 0 .863.857.86.86 0 0 0 .862-.857zm-5.674 0c0-.472-.43-.858-.904-.858a.862.862 0 0 0-.862.858.86.86 0 0 0 .862.857c.475 0 .904-.382.904-.857zm-5.757 0a.862.862 0 0 0-1.725 0 .86.86 0 0 0 .862.857.86.86 0 0 0 .863-.857zm19.354-4.7c0-.71-.597-1.289-1.293-1.289-.713 0-1.304.579-1.304 1.288a1.299 1.299 0 0 0 2.597 0zm-6.426 0a1.291 1.291 0 0 0-2.584 0c0 .709.578 1.284 1.292 1.284.713 0 1.292-.575 1.292-1.285zm-6.423 0a1.291 1.291 0 0 0-2.584 0c0 .709.579 1.284 1.292 1.284.714 0 1.292-.575 1.292-1.285zm-6.422 0c0-.71-.578-1.289-1.326-1.289-.68 0-1.258.579-1.258 1.288 0 .71.578 1.285 1.258 1.285.748 0 1.326-.575 1.326-1.285zm-6.426 0a1.291 1.291 0 0 0-2.584 0c0 .709.579 1.284 1.292 1.284.714 0 1.292-.575 1.292-1.285zm-6.422 0a1.291 1.291 0 0 0-2.584 0c0 .709.578 1.284 1.292 1.284.713 0 1.292-.575 1.292-1.285zm-6.426 0c0-.71-.578-1.289-1.292-1.289-.76 0-1.292.579-1.292 1.288 0 .71.532 1.285 1.292 1.285.714 0 1.292-.575 1.292-1.285zm-6.422 0c0-.71-.579-1.289-1.292-1.289-.714 0-1.338.579-1.338 1.288 0 .71.624 1.285 1.338 1.285.713 0 1.292-.575 1.292-1.285zM6.786 40.256c0-18.478 15.124-33.511 33.712-33.511 18.592 0 33.716 15.033 33.716 33.51H81C81 18.062 62.831 0 40.498 0 18.168 0 0 18.06 0 40.257z"/></g></g></g></svg>