<svg xmlns="http://www.w3.org/2000/svg" width="60" height="60" viewBox="0 0 60 60"><defs><linearGradient id="6qx3a" x1="2.59" x2="57.4" y1="17.79" y2="42.2" gradientUnits="userSpaceOnUse"><stop offset="0" stop-color="#57f6bd"/><stop offset="1" stop-color="#4a7eff"/></linearGradient></defs><g><g><g><path fill="url(#6qx3a)" d="M30 60c16.569 0 30-13.431 30-30C60 13.431 46.569 0 30 0 13.431 0 0 13.431 0 30c0 16.569 13.431 30 30 30z"/></g><g><path fill="none" stroke="#fff" stroke-linecap="round" stroke-linejoin="round" stroke-miterlimit="20" stroke-width="2.09" d="M30.51 22.481a4.18 4.18 0 1 0 0-8.36 4.18 4.18 0 0 0 0 8.36z"/></g><g><path fill="none" stroke="#fff" stroke-linecap="round" stroke-linejoin="round" stroke-miterlimit="20" stroke-width="2.09" d="M30.505 31.32v0l6.218-.134a19.763 19.763 0 0 0 1.995-2.328c1.768-2.25 2.214-2.744 3.12-3.858.905-1.207 2.51-2.607 4.993-1.61.36.143.636.44.753.809.116.369.061.801-.151 1.094-1.33 2.059-4.124 6.324-5.589 8.354-1.266 1.762-3.537 3.19-4.916 4.117a6.732 6.732 0 0 1-2.546.863l-13.08 1.217v0l-1.542 2.759v0"/></g><g><path fill="none" stroke="#fff" stroke-linecap="round" stroke-linejoin="round" stroke-miterlimit="20" stroke-width="2.09" d="M11.49 39.913c4.18-5.78 5.751-13.193 14.02-13.193h7.781c.294 0 .572.133.709.36a.87.87 0 0 1 .253.814C34 30 32.153 31.448 30.08 31.318h-2.738v0"/></g></g></g></svg>