<svg xmlns="http://www.w3.org/2000/svg" width="60" height="60" viewBox="0 0 60 60"><defs><linearGradient id="m3d9a" x1="2.59" x2="57.4" y1="17.79" y2="42.2" gradientUnits="userSpaceOnUse"><stop offset="0" stop-color="#57f6bd"/><stop offset="1" stop-color="#4a7eff"/></linearGradient></defs><g><g><g><path fill="url(#m3d9a)" d="M30 60c16.569 0 30-13.431 30-30C60 13.431 46.569 0 30 0 13.431 0 0 13.431 0 30c0 16.569 13.431 30 30 30z"/></g><g><path fill="none" stroke="#fff" stroke-linecap="round" stroke-linejoin="round" stroke-miterlimit="20" stroke-width="1.73" d="M14.67 37.055v0-7.166 0l6.204-3.579v0l6.203 3.58v7.165l-6.203 3.58v0l-6.204-3.58v0z"/></g><g><path fill="none" stroke="#fff" stroke-linecap="round" stroke-linejoin="round" stroke-miterlimit="20" stroke-width="1.73" d="M27.08 37.055v0-7.166 0l6.204-3.579v0l6.21 3.58v7.165l-6.21 3.58v0l-6.204-3.58v0z"/></g><g><path fill="none" stroke="#fff" stroke-linecap="round" stroke-linejoin="round" stroke-miterlimit="20" stroke-width="1.73" d="M36.455 35.73l-3.105 1.79"/></g><g><path fill="none" stroke="#fff" stroke-linecap="round" stroke-linejoin="round" stroke-miterlimit="20" stroke-width="1.73" d="M43 24.94l-3.12 1.79"/></g><g><path fill="none" stroke="#fff" stroke-linecap="round" stroke-linejoin="round" stroke-miterlimit="20" stroke-width="1.73" d="M23.905 35.73L20.8 37.52"/></g><g><path fill="none" stroke="#fff" stroke-linecap="round" stroke-linejoin="round" stroke-miterlimit="20" stroke-width="1.73" d="M33.28 26.545v0-7.159 0l6.21-3.586v0l6.205 3.586v7.16l-6.204 3.586v0l-6.211-3.587v0z"/></g><g><path fill="none" stroke="#fff" stroke-linecap="round" stroke-linejoin="round" stroke-miterlimit="20" stroke-width="1.73" d="M20.874 47.308V40.63"/></g><g><path fill="none" stroke="#fff" stroke-linecap="round" stroke-linejoin="round" stroke-miterlimit="20" stroke-width="1.73" d="M14.668 29.89L9.83 26.31"/></g><g><path fill="none" stroke="#fff" stroke-linecap="round" stroke-linejoin="round" stroke-miterlimit="20" stroke-width="1.73" d="M39.49 37.05l4.18 3.58"/></g><g><path fill="none" stroke="#fff" stroke-linecap="round" stroke-linejoin="round" stroke-miterlimit="20" stroke-width="1.73" d="M39.484 15.8V9.83"/></g></g></g></svg>