<svg xmlns="http://www.w3.org/2000/svg" width="70" height="70" viewBox="0 0 70 70"><defs><linearGradient id="m8hka" x1="3.02" x2="66.97" y1="20.76" y2="49.24" gradientUnits="userSpaceOnUse"><stop offset="0" stop-color="#57f6bd"/><stop offset="1" stop-color="#4a7eff"/></linearGradient></defs><g><g><g><path fill="url(#m8hka)" d="M35 70c19.33 0 35-15.67 35-35S54.33 0 35 0 0 15.67 0 35s15.67 35 35 35z"/></g><g><path fill="none" stroke="#fff" stroke-linecap="round" stroke-linejoin="round" stroke-miterlimit="20" stroke-width="2.09" d="M35.597 26.225c2.694 0 4.878-2.225 4.878-4.878a4.877 4.877 0 1 0-9.755 0c0 2.653 2.184 4.878 4.877 4.878z"/></g><g><path fill="none" stroke="#fff" stroke-linecap="round" stroke-linejoin="round" stroke-miterlimit="20" stroke-width="2.09" d="M35.596 36.538v0l7.254-.157a23.058 23.058 0 0 0 2.327-2.715c2.064-2.666 2.584-3.202 3.64-4.555 1.056-1.354 2.93-2.988 5.826-1.824a1.502 1.502 0 0 1 .702 2.22c-1.552 2.401-4.812 7.378-6.52 9.746C47.348 41.308 44.7 43 43.09 44.057a7.855 7.855 0 0 1-2.97 1.006l-15.26 1.42v0L23.06 49.7v0"/></g><g><path fill="none" stroke="#fff" stroke-linecap="round" stroke-linejoin="round" stroke-miterlimit="20" stroke-width="2.09" d="M13.41 46.561c4.877-6.742 6.71-15.391 16.357-15.391h9.078c.343 0 .667.155.884.42.218.265.271.614.271.95-.357 2.402-2.482 4.146-4.902 3.994h-3.194v0"/></g></g></g></svg>