<svg xmlns="http://www.w3.org/2000/svg" width="70" height="70" viewBox="0 0 70 70"><defs><linearGradient id="zqxha" x1="3.02" x2="66.97" y1="20.76" y2="49.24" gradientUnits="userSpaceOnUse"><stop offset="0" stop-color="#57f6bd"/><stop offset="1" stop-color="#4a7eff"/></linearGradient></defs><g><g><g><path fill="url(#zqxha)" d="M35 70c19.33 0 35-15.67 35-35S54.33 0 35 0 0 15.67 0 35s15.67 35 35 35z"/></g><g><path fill="none" stroke="#fff" stroke-linecap="round" stroke-linejoin="round" stroke-miterlimit="20" stroke-width="1.73" d="M17.12 43.226v0-8.36 0l7.238-4.176v0l7.237 4.176v8.36l-7.237 4.176v0l-7.238-4.176v0z"/></g><g><path fill="none" stroke="#fff" stroke-linecap="round" stroke-linejoin="round" stroke-miterlimit="20" stroke-width="1.73" d="M31.59 43.226v0-8.36 0l7.238-4.176v0l7.246 4.176v8.36l-7.246 4.176v0l-7.238-4.176v0z"/></g><g><path fill="none" stroke="#fff" stroke-linecap="round" stroke-linejoin="round" stroke-miterlimit="20" stroke-width="1.73" d="M42.533 41.68l-3.623 2.088"/></g><g><path fill="none" stroke="#fff" stroke-linecap="round" stroke-linejoin="round" stroke-miterlimit="20" stroke-width="1.73" d="M50.153 29.1l-3.623 2.088"/></g><g><path fill="none" stroke="#fff" stroke-linecap="round" stroke-linejoin="round" stroke-miterlimit="20" stroke-width="1.73" d="M27.893 41.68l-3.623 2.088"/></g><g><path fill="none" stroke="#fff" stroke-linecap="round" stroke-linejoin="round" stroke-miterlimit="20" stroke-width="1.73" d="M38.83 31v0-8.376 0l7.246-4.184v0l7.238 4.184V31l-7.238 4.16v0L38.83 31v0z"/></g><g><path fill="none" stroke="#fff" stroke-linecap="round" stroke-linejoin="round" stroke-miterlimit="20" stroke-width="1.73" d="M24.353 55.19V47.4"/></g><g><path fill="none" stroke="#fff" stroke-linecap="round" stroke-linejoin="round" stroke-miterlimit="20" stroke-width="1.73" d="M17.115 34.866L11.47 30.69"/></g><g><path fill="none" stroke="#fff" stroke-linecap="round" stroke-linejoin="round" stroke-miterlimit="20" stroke-width="1.73" d="M46.07 43.23l4.877 4.176"/></g><g><path fill="none" stroke="#fff" stroke-linecap="round" stroke-linejoin="round" stroke-miterlimit="20" stroke-width="1.73" d="M46.063 18.435V11.47"/></g></g></g></svg>