<svg xmlns="http://www.w3.org/2000/svg" width="195" height="34"><path fill="#0e1d4a" d="M13.296 30h7.964l.975 1h-8.777l-4.616-4.636V22h4.454zM26 27.437l-1.1 1.495L23.926 31l-1.007-1.808-3.706-2.763L17 20.837l1.204-1.723-.52-.52-1.105 1.04.421-1.3-1.526-3.803-3.771-.358-1.398-1.105H5.526l-.585-.878H3.608v9.623L0 18.204v-8.42h9.2V0h11.052L23 2.795h-9.477v8.875h6.372v.715h1.04V11.28h.357c.033.26 2.406 7.834 2.406 7.834l2.08 5.072zm-3-15.28V9.916h7l1.825 1.95.455.455v7.835l-.78.942v-8.94zm139.115 11.736c.13-.227.195-.893.162-2.145v-2.21c-1.495.357-2.568.812-3.218 1.364a2.824 2.824 0 00-.975 2.243 2.227 2.227 0 00.552 1.593c.364.39.878.618 1.364.618.912 0 1.594-.488 2.115-1.463zm5.396.91c.097 0 .13.065.195.197 0 .304-.316.637-.946 1h-.094c-.228 0-.325.07-.325.201v.02a4.267 4.267 0 01-1.788.403c-1.398 0-2.113-.716-2.178-2.146-.618 1.398-2.048 2.275-3.576 2.243a3.046 3.046 0 01-2.146-.78c-.552-.488-.877-1.235-.845-1.941 0-1.7 1.008-3 2.99-4a23.165 23.165 0 013.544-1v-.698c.065-1.17-.032-2.302-.26-3.511a2.022 2.022 0 00-2.178-1.56c-.65 0-1.268.195-1.788.584a1.833 1.833 0 00-.715 1.463c0 .163.13.228.39.228s.52.13.683.358c.195.227.292.52.292.812V17c-.097.651-.682 1.106-1.332 1-.434 0-.878-.121-1.17-.446-.264-.325-.456-.748-.456-1.203 0-.942.423-1.852 1.138-2.47.943-.813 2.178-1.203 3.446-1.138 2.21 0 3.608.617 4.096 1.82.227.91.325 1.82.26 2.764V23c0 .925 0 1.478.032 1.64.098.748.39 1.106.878 1.106.52 0 1.04-.227 1.398-.618.195-.227.357-.325.455-.325zM166.76 26h.686c.554 0 .845-.124.845-.352.032-.13.032-.91.032-2.373V7.802c.033-.39 0-.748-.064-1.105-.066-.163-.259-.228-.488-.228h-1.105c-.293 0-.423-.097-.423-.26 0-.209.228-.209.757-.26a7.677 7.677 0 002.689-.683l.65-.266.26-.124c.195.878.26 1.755.228 2.666v17.034c0 .357 0 .715.032 1.072a.428.428 0 00.228.228c.39.065.747.065 1.137.065.488 0 .716.059.683.292 0 .163-.13.26-.39.26h-.358c-.065 0-.585-.032-1.625-.064h-.943c-.162 0-.975 0-2.438.032h-.357c-.283.032-.444-.058-.455-.24a6.453 6.453 0 00.418-.221zM53 24.413c.8-.878 1.222-2.178 1.19-3.933 0-2.568-1.008-4.129-3.088-4.747-1.102-.227-2.243-.292-3.381-.26v9.038c0 .585.065.942.195 1.008.195.162.748.227 1.69.227 1.268.065 2.47-.423 3.394-1.333zm-.63-10.857c.682-.91 1.007-2.048.975-3.186 0-1.95-.455-3.25-1.345-3.901-.443-.358-1.32-.52-2.621-.52-.379 0-.91.051-1.626.051v8.856H48l1.671-.065c1.04 0 2.048-.455 2.699-1.235zm2.73 2.86a5.058 5.058 0 012.373 4.389 4.854 4.854 0 01-2.828 4.583 10.23 10.23 0 01-3.933.91c-.456.033-1.853.033-4.129.033h-3.706c-.357 0-.52-.098-.52-.26 0-.163.325-.26.943-.26.7 0 1.17-.065 1.3-.228.13-.162.195-.583.195-1.397V7.769c.033-.52 0-1.04-.13-1.56-.162-.209-.665-.357-1.56-.39-.553 0-.813-.098-.813-.325 0-.195.228-.293.708-.293h.397c.196.065.423.098.603.098h5.931c2.178.032 3.804.39 4.877 1.105 1.192.78 1.95 2.145 1.885 3.596.032 1.312-.553 2.548-1.56 3.393-1.04.878-2.503 1.43-4.356 1.658v.195c1.853.13 3.283.52 4.323 1.17zm9.98 7.477c.13-.227.195-.893.162-2.145v-2.21c-1.495.357-2.568.812-3.242 1.364a3.04 3.04 0 00-1 2.243c0 .585.212 1.138.602 1.593.398.39.877.618 1.398.618.877 0 1.56-.488 2.08-1.463zm5.364.91c.13 0 .162.065.195.197 0 .323-.358.68-1.073 1.07a4.328 4.328 0 01-2.08.554c-1.398 0-2.114-.716-2.178-2.146-.618 1.398-2.048 2.275-3.576 2.243-.732.032-1.56-.26-2.146-.78A2.406 2.406 0 0158.741 24c0-1.7 1.008-3 2.99-4a23.133 23.133 0 013.544-1v-.698c.065-1.17-.033-2.302-.275-3.511-.213-1.008-1.155-1.658-2.163-1.56-.65 0-1.268.195-1.837.584a1.944 1.944 0 00-.666 1.463c0 .163.13.228.39.228.276 0 .52.13.683.358.195.227.292.52.292.812V17c-.097.651-.699 1.106-1.333 1-.455 0-.877-.121-1.17-.446a1.785 1.785 0 01-.455-1.203c0-.942.423-1.852 1.138-2.47.942-.813 2.178-1.203 3.445-1.138 2.211 0 3.576.617 4.096 1.82.228.91.325 1.82.26 2.764V23c0 .925 0 1.478.033 1.64.098.748.39 1.106.878 1.106.52 0 1.04-.227 1.409-.618.184-.227.346-.325.444-.325zm8.614.065c.813-1.365 1.203-3.12 1.235-5.234a10.243 10.243 0 00-.747-4.063c-.65-1.571-1.658-2.308-3.024-2.308a2.59 2.59 0 00-1.82.737 2.818 2.818 0 00-.813 1.831c-.032.878-.032 2.763.033 5.624.078 1.43.078 2.308.078 2.6.052.325.214.65.41.945.487.746 1.332 1.201 2.275 1.201a2.586 2.586 0 002.373-1.333zm2.243-10.175C82.44 16.06 83.057 17.814 83 19.57a7.62 7.62 0 01-1.731 5.072c-1.04 1.3-2.634 2.08-4.269 2.047-1.258.065-2.428-.487-3.143-1.462v7.087c-.033.26 0 .52.032.78.033.097.111.162.293.227.585.097 1.203.13 1.818.097.197 0 .327.066.327.26 0 .163-.13.228-.39.228H70c-.597 0-.89-.065-.89-.227 0-.195.13-.293.358-.293h.91c.622 0 .91-.13.943-.385.033-.135.033-1 .033-2.8V15.083c0-.553-.26-.813-.813-.78h-1.268c-.162 0-.273-.066-.273-.228 0-.195.24-.293.696-.293A5.515 5.515 0 0072.719 13c.195-.127.39-.192.618-.225.162 0 .292.098.325.225.065.49.097.946.097 1.4A3.676 3.676 0 0177 12.776c1.635-.065 3.228.65 4.301 1.918zm10.955 9.72c.163 0 .228.065.228.163 0 .195-.228.52-.748.975a4.372 4.372 0 01-3.088 1.17c-.943.065-1.853-.227-2.536-.845-.325-.325-.487-1.3-.487-2.876v-9c0-.12-.13-.282-.325-.282h-1.138c-.455 0-.683-.097-.683-.227s.098-.196.325-.228a4.732 4.732 0 003.674-2.34.49.49 0 01.455-.293H88c.063.033.128.13.128.227v.65c-.033.493.032 1.074.13 1.626.292.065.617.065.91.065a8.252 8.252 0 002.21-.198h.228c.13 0 .227.1.227.263 0 .293-.833.423-2.47.423h-1.235v5.624a41.54 41.54 0 00.227 5.33c.098.683.715 1.171 1.398 1.073.65 0 1.398-.39 2.247-1.137 0-.098.159-.163.256-.163zm6.567 1.528c.292 0 .422.059.39.292 0 .163-.163.26-.52.26.032 0-.195-.032-.693-.064-.64-.033-1.16-.065-1.55-.065h-3.154a.49.49 0 01-.357.13c-.228 0-.325-.065-.325-.228 0-.266.227-.325.617-.325.769-.033 1.203-.065 1.268-.163.098-.422.13-.845.098-1.267v-9.2c0-.311 0-.618-.065-.91-.033-.098-.163-.13-.39-.13H93c-.256 0-.354-.098-.354-.271 0-.087.195-.152.52-.185a7.492 7.492 0 003.446-.942l.293-.163a4.1 4.1 0 01.227 1.658v9.753c-.032.487 0 .942.033 1.43a.35.35 0 00.325.26c.422.097.878.13 1.333.13zM95.604 5.884c.13 0 .228 0 .325-.032A1.252 1.252 0 0197 7.217v.357c-.128.683-.745 1.138-1.396 1.04-.357 0-.715-.13-.975-.39-.26-.224-.39-.552-.39-.91 0-.942.455-1.43 1.365-1.43zm11.833 14.01c.683.683 1.105 1.626 1.04 2.536a3.89 3.89 0 01-1.267 2.99 4.171 4.171 0 01-3.056 1.236c-.878-.032-1.723-.292-2.503-.715-.195-.13-.423-.228-.651-.228-.324 0-.552.195-.682.585-.065.228-.195.358-.318.358-.137 0-.202-.065-.202-.227v-4.064c0-.227.097-.365.202-.365.188 0 .253.138.285.365a4.42 4.42 0 00.78 2.21c.748 1.04 1.935 1.626 3.251 1.593.684.033 1.268-.227 1.756-.65.455-.422.715-1.04.682-1.69a2.39 2.39 0 00-.754-1.886c-.22-.227-.48-.39-.773-.552-.227-.13-.91-.39-2.048-.813-2.243-.845-3.381-2.145-3.381-3.836a3.896 3.896 0 011.138-2.86 3.73 3.73 0 012.828-1.17 6.963 6.963 0 011.82.357c.195.065.358.098.553.098a.719.719 0 00.78-.618c.032-.195.083-.293.26-.293.13 0 .195.065.195.228v1.463c0 .78.065 1.56.163 2.34v.13c0 .13-.098.228-.228.195-.13 0-.307-.292-.455-.91a3.589 3.589 0 00-1.17-1.788c-.52-.455-1.203-.683-1.918-.683-.618 0-1.236.228-1.69.65-.456.423-.716 1.008-.683 1.626 0 1.008.682 1.788 2.048 2.308 2.08.845 3.445 1.528 3.998 2.08zm10.858 4.52c.13 0 .227.064.227.162 0 .195-.227.52-.748.975a4.372 4.372 0 01-3.088 1.17c-.942.065-1.853-.227-2.535-.845-.325-.325-.488-1.3-.488-2.876v-9c0-.12-.13-.282-.325-.282H110.2c-.455 0-.682-.097-.682-.227s.097-.196.325-.228a4.732 4.732 0 003.673-2.34.503.503 0 01.484-.293c.101.033.166.13.166.227v.65c-.032.493.033 1.074.13 1.626.293.065.618.065.91.065a8.084 8.084 0 002.21-.198h.228c.163 0 .228.1.228.263 0 .293-.872.423-2.47.423h-1.236v5.624a41.54 41.54 0 00.228 5.33c.097.683.715 1.171 1.398 1.073.65 0 1.397-.39 2.208-1.137a.395.395 0 01.295-.163zm24.348 1.43c.357-.033.455.032.357.227 0 .162-.162.26-.552.26h-6.6c-.422 0-.617-.065-.617-.227 0-.163.455-.26 1.398-.326.52-.032.812-.13.877-.26.13-.455.163-.91.13-1.397v-8.843h-9.134v8.582c0 .943.097 1.463.227 1.626.13.162.618.26 1.43.325.52.032.78.13.78.26 0 .162-.227.26-.617.26h-6.599c-.422 0-.617-.065-.617-.228 0-.162.227-.26.617-.292.277-.033.52-.033.813-.065.293.032.618-.098.845-.293.098-.552.13-1.138.098-1.69V7.737c.032-.52 0-1.073-.13-1.593-.065-.144-.349-.228-.943-.26-.618-.032-1.008-.065-1.105-.098-.098-.032-.163-.097-.163-.26 0-.162.13-.26.39-.26.098 0 .26 0 .472.033.536.032 1.739.065 3.624.065 1.008 0 1.756 0 2.146-.033.23-.032.357-.032.552-.032.358 0 .553.097.553.292 0 .163-.325.26-.975.26-.65 0-1.04.065-1.17.228-.13.162-.196.65-.196 1.462v7.022h9.135V8c0-1.108-.065-1.726-.228-1.92-.162-.196-.715-.294-1.69-.261-.293 0-.455-.065-.455-.26 0-.163.162-.26.52-.26h6.632c.422 0 .65.097.65.26 0 .162-.455.26-1.333.293-.195 0-.39.032-.585.064a.528.528 0 00-.39.325 7.044 7.044 0 00-.065 1.43v16.157c-.033.552 0 1.172.162 1.69.228.228.78.325 1.756.325zm9.134-9.005c-.065-2.438-.943-3.64-2.6-3.64-1.626 0-2.666 1.202-3.056 3.64zm2.438 6.014c.13 0 .228.065.195.147-.065.373-.227.73-.41 1.056a9.53 9.53 0 01-1 1.267 4.556 4.556 0 01-3.466 1.333c-1.755.032-3.413-.656-4.534-1.983-1.285-1.3-2-3.055-1.902-4.876-.098-1.853.552-3.64 1.755-5.07a5.436 5.436 0 014.356-2.05c1.3-.031 2.6.424 3.609 1.269.975.812 1.527 2.054 1.56 3.25-.845.13-1.69.163-2.568.13h-2.113c-.13 0-1.366.033-3.641.098-.056.65-.163 1.268-.163 1.918 0 2.048.39 3.658 1.17 4.714a3.711 3.711 0 003.284 1.657 3.3 3.3 0 001.95-.552c.703-.585 1.203-1.3 1.593-2.08.033-.081.163-.228.325-.228zm27.372 1.56c.162 0 .227.065.227.163 0 .195-.227.52-.748.975A4.357 4.357 0 01178 26.72c-1 .065-1.875-.227-2.557-.845-.325-.325-.443-1.3-.443-2.876v-9c0-.12-.175-.282-.37-.282h-1.138c-.492 0-.682-.097-.682-.227s.097-.196.325-.228c1.527-.13 2.865-1.008 3.673-2.34a.49.49 0 01.455-.293h.033c.097.033.162.13.162.227v.65c-.032.493.033 1.074.13 1.626.293.065.618.065.91.065a8.229 8.229 0 002.21-.198h.228c.13 0 .228.1.228.263 0 .293-.845.423-2.47.423h-1.236v5.624a41.54 41.54 0 00.228 5.33c.097.683.715 1.171 1.397 1.073.65 0 1.398-.39 2.244-1.137.032-.098.162-.163.26-.163zM194.785 26c.162 0 .215.07.215.168 0 .163-.183.228-.54.228h-5.527c-.26 0-.39-.065-.39-.228 0-.168.39-.227 1.17-.227.488 0 .748-.065.813-.163.098-.357.13-.778.098-1.137v-6.144c0-1.82-.065-2.958-.228-3.414-.396-.942-1.105-1.397-2.275-1.397-.976 0-1.853.487-2.373 1.314-.196.278-.293.896-.293 1.872v7.736c0 .325 0 .618.032.943 0 .195.098.325.228.357.423.033.878.092 1.285.092.243 0 .373 0 .373.201 0 .163-.098.228-.293.228h-2.698c-1.69-.033-2.6-.033-2.795 0h-.293c-.228 0-.294-.065-.294-.196 0-.13.066-.233.294-.233h.91c.455 0 .683-.124.715-.417V11.93c0-3.25-.065-5.006-.162-5.266-.13-.195-.618-.292-1.496-.325-.487 0-.715-.065-.715-.228 0-.111.065-.194.163-.227.097-.032.455-.032 1.04-.065 1.008 0 2.048-.26 2.958-.715.13-.104.293-.104.423-.163.162.26.227 1.059.227 2.34v7.445a4.22 4.22 0 013.643-1.95c1.624 0 2.794.454 3.477 1.332.39.553.617 1.203.65 1.892.065.676.065 1.359.065 2v7.68c.032.196.552.32 1.593.32z"/></svg>